<svg width="142" height="34" viewBox="0 0 142 34" fill="none" xmlns="http://www.w3.org/2000/svg">
<path d="M5.94907 0.283092C5.98505 0.117884 6.13197 0 6.30189 0H16.1237C16.3538 0 16.5252 0.211378 16.4765 0.435147L14.5582 9.24574C14.5095 9.46949 14.6808 9.68088 14.911 9.68088H21.5873C21.7572 9.68088 21.9041 9.56299 21.9401 9.39779L23.9246 0.283099C23.9606 0.117888 24.1075 0 24.2774 0H34.0993C34.3293 0 34.5006 0.211382 34.4519 0.435154L28.5112 27.7182C28.4752 27.8834 28.3283 28.0013 28.1584 28.0013H18.3367C18.1065 28.0013 17.9351 27.7899 17.9838 27.5661L20.1292 17.7161C20.1779 17.4923 20.0065 17.2809 19.7764 17.2809H13.1001C12.9302 17.2809 12.7833 17.3988 12.7473 17.564L10.5357 27.7183C10.4998 27.8835 10.3528 28.0013 10.1829 28.0013H0.361123C0.130976 28.0013 -0.0404023 27.7899 0.00832326 27.5662L5.94907 0.283092Z" fill="white"/>
<path d="M43.5791 27.64C43.5797 27.6396 43.5803 27.639 43.5803 27.6382C44.1273 25.1321 45.8408 23.5767 48.1764 22.5655C48.4368 22.4528 48.4883 22.0962 48.2766 21.9077C46.4098 20.2443 45.6992 17.9048 46.3492 14.9205C47.6645 8.8806 53.7229 5.20026 60.5086 5.20026C64.7889 5.20026 72.3951 5.65348 74.8685 5.7135C75.0988 5.71907 75.2683 5.93141 75.2195 6.15519L73.5725 13.7175C73.5365 13.8827 73.3896 14.0006 73.2198 14.0006H70.432C70.2622 14.0006 70.1154 14.1185 70.0794 14.2837L69.9406 14.9205C68.6427 20.8808 63.5795 24.3209 56.6144 24.3209H55.356C54.6818 24.3209 54.2795 24.7201 54.1845 25.1604C54.0792 25.6408 54.3164 25.9999 54.9906 25.9999H70.45C70.6803 25.9999 70.8517 26.2113 70.8029 26.435L69.217 33.7169C69.181 33.8822 69.0339 34 68.8641 34H51.0002C45.6536 34 42.7164 31.6011 43.5775 27.6418C43.5778 27.641 43.5782 27.6403 43.5791 27.64ZM61.2213 14.8213C61.5525 13.3013 60.7268 12.1412 58.8839 12.1412C57.0409 12.1412 55.7105 13.3013 55.3793 14.8213C55.048 16.3413 55.8738 17.5014 57.7167 17.5014C59.5596 17.5014 60.8901 16.3413 61.2213 14.8213Z" fill="white"/>
<path d="M73.7565 17.0004C75.2108 10.3202 82.0335 5.20026 90.9303 5.20026C99.8275 5.20026 104.42 10.3202 102.966 17.0004C101.512 23.6806 94.6892 28.8005 85.7911 28.8005C76.8933 28.8005 72.3013 23.6806 73.7565 17.0004ZM92.6957 16.4985L92.6966 16.4973C93.2327 14.0349 91.8287 12.4341 89.2463 12.4341C86.6637 12.4341 84.5631 14.0345 84.0264 16.4985C83.4903 18.9616 84.8934 20.562 87.476 20.562C90.0584 20.562 92.1587 18.9621 92.6951 16.4996L92.6957 16.4985Z" fill="white"/>
<path d="M36.2861 5.7207C36.1164 5.7207 35.9692 5.83859 35.9332 6.0038L31.2375 27.5659C31.1888 27.7896 31.3605 28.001 31.5905 28.001H41.1879C41.3577 28.001 41.5046 27.8831 41.5406 27.7179L46.2362 6.15587C46.285 5.93209 46.1136 5.7207 45.8836 5.7207H36.2861Z" fill="white"/>
<path d="M139.19 6.72539C136.771 6.72539 134.219 7.95159 132.406 9.98331C132.406 9.98331 130.52 11.936 129.295 13.1558C129.045 13.4055 128.646 13.1792 128.726 12.8356L130.674 4.55051C130.727 4.32521 130.555 4.10959 130.323 4.10959H128.025C125.65 4.10959 123.144 5.33578 121.365 7.3675L119.241 9.79219C117.466 11.8186 114.97 13.0439 112.6 13.0501L111.219 13.0541C110.978 13.0548 110.804 12.8234 110.872 12.5927L112.792 6.16044C112.859 5.93406 112.692 5.70555 112.455 5.69924L107.77 5.57449C107.606 5.57014 107.46 5.67643 107.414 5.83326L105.26 13.2043C105.193 13.4341 105.367 13.6636 105.607 13.6636H109.02C109.252 13.6636 109.424 13.8792 109.371 14.1046L106.103 28.0084C106.05 28.2337 106.221 28.4493 106.454 28.4493H108.998C111.356 28.4493 113.845 27.241 115.623 25.2316L117.782 22.7926C119.524 20.8243 121.95 19.6222 124.271 19.5758L126.537 19.5308C126.776 19.526 126.954 19.75 126.894 19.9804L126.508 21.4548C126.467 21.6104 126.327 21.7201 126.165 21.7233L123.553 21.775C121.88 21.8084 120.045 23.0493 118.476 24.633C118.43 24.6803 118.397 24.7399 118.383 24.8046L116.405 33.562C116.354 33.7864 116.526 33.9997 116.757 33.9997H119.36C121.762 33.9997 124.296 32.7915 126.107 30.782L128.306 28.3431C130.079 26.3747 132.551 25.1718 134.914 25.1262L137.569 25.0754C137.735 25.0722 137.877 24.9564 137.914 24.795L141.896 7.16322C141.947 6.93873 141.775 6.72539 141.544 6.72539H139.19Z" fill="white"/>
</svg>
